<svg width="459" height="218" xmlns="http://www.w3.org/2000/svg" xmlns:undefined="http://sodipodi.sourceforge.net/DTD/sodipodi-0.dtd" xmlns:xlink="http://www.w3.org/1999/xlink" version="1.1">
 <metadata id="metadata198">image/svg+xml</metadata>
 <defs id="defs12">
  <linearGradient id="grad5">
   <stop id="stop30" stop-color="#1b1918" offset="6603.0000%"/>
   <stop id="stop32" stop-color="#000000" offset="12.0000%"/>
   <stop id="stop34" stop-color="#d6d6d6" offset="30156.0000%"/>
   <stop id="stop36" stop-color="#000000" offset="768.0000%"/>
   <stop id="stop38" stop-color="#ffffff" offset="19038.0000%"/>
   <stop id="stop40" stop-color="#000000" offset="5.0000%"/>
  </linearGradient>
  <linearGradient gradientUnits="objectBoundingBox" gradientTransform="rotate(180,0.5,0.5)" y2="1" x2="0" y1="0" x1="0" id="grad6" xlink:href="#grad5"/>
  <linearGradient id="grad7">
   <stop id="stop60" stop-color="#1b1918" offset="6603.0000%"/>
   <stop id="stop62" stop-color="#000000" offset="12.0000%"/>
   <stop id="stop64" stop-color="#d6d6d6" offset="30156.0000%"/>
   <stop id="stop66" stop-color="#000000" offset="768.0000%"/>
   <stop id="stop68" stop-color="#ffffff" offset="19038.0000%"/>
   <stop id="stop70" stop-color="#000000" offset="5.0000%"/>
  </linearGradient>
  <linearGradient gradientUnits="objectBoundingBox" gradientTransform="rotate(180,0.5,0.5)" y2="1" x2="0" y1="0" x1="0" id="grad8" xlink:href="#grad7"/>
  <linearGradient id="grad15">
   <stop id="stop126" stop-color="#1b1918" offset="6603.0000%"/>
   <stop id="stop128" stop-color="#000000" offset="12.0000%"/>
   <stop id="stop130" stop-color="#d6d6d6" offset="30156.0000%"/>
   <stop id="stop132" stop-color="#000000" offset="768.0000%"/>
   <stop id="stop134" stop-color="#ffffff" offset="19038.0000%"/>
   <stop id="stop136" stop-color="#000000" offset="5.0000%"/>
  </linearGradient>
  <linearGradient gradientUnits="objectBoundingBox" gradientTransform="rotate(180,0.5,0.5)" y2="1" x2="0" y1="0" x1="0" id="grad16" xlink:href="#grad15"/>
  <linearGradient id="grad17">
   <stop id="stop144" stop-color="#1b1918" offset="6603.0000%"/>
   <stop id="stop146" stop-color="#000000" offset="12.0000%"/>
   <stop id="stop148" stop-color="#d6d6d6" offset="30156.0000%"/>
   <stop id="stop150" stop-color="#000000" offset="768.0000%"/>
   <stop id="stop152" stop-color="#ffffff" offset="19038.0000%"/>
   <stop id="stop154" stop-color="#000000" offset="5.0000%"/>
  </linearGradient>
  <linearGradient gradientUnits="objectBoundingBox" gradientTransform="rotate(180,0.5,0.5)" y2="1" x2="0" y1="0" x1="0" id="grad18" xlink:href="#grad17"/>
  <linearGradient id="grad21">
   <stop id="stop176" stop-color="#1b1918" offset="6603.0000%"/>
   <stop id="stop178" stop-color="#000000" offset="12.0000%"/>
   <stop id="stop180" stop-color="#d6d6d6" offset="30156.0000%"/>
   <stop id="stop182" stop-color="#000000" offset="768.0000%"/>
   <stop id="stop184" stop-color="#ffffff" offset="19038.0000%"/>
   <stop id="stop186" stop-color="#000000" offset="5.0000%"/>
  </linearGradient>
  <linearGradient gradientUnits="objectBoundingBox" gradientTransform="rotate(180,0.5,0.5)" y2="1" x2="0" y1="0" x1="0" id="grad22" xlink:href="#grad21"/>
 </defs>










 <g class="currentLayer">
  <title>Layer 1</title>
  <g id="svg_1" class="selected">
   <path fill="#d90000" id="path28" d="m444.8479,163.55095c-2.6007,1.7745 -5.7056,4.6931 -6.1695,8.3457l0,0c-0.2702,2.1732 0.4608,4.1382 1.465,5.8579l0,0c0.4742,0.8148 1.0146,1.5923 1.552,2.3522l0,0c0.3396,0.4897 1.3335,2.3409 1.9433,2.8161l0,0c2.2715,-1.9578 5.1755,-6.8704 5.1755,-6.8704l0,0c-0.0403,1.0923 -0.5404,4.0906 -3.1815,7.2938l0,0c12.1008,1.3698 15.0846,-7.2752 12.4798,-15.6975l0,0c-2.7208,-8.8241 -5.6715,-11.1949 -5.6715,-11.1949c0,0 -2.5169,3.6163 -7.5931,7.0971z"/>
   <path fill="url(#grad6)" id="path46" d="m187.3978,194.66625l22.7545,-49.9466c1.1711,-2.5957 2.0504,-4.8561 2.6366,-6.7825c0.5863,-1.9264 0.8794,-3.5582 0.8794,-4.8984c0,-1.6741 -0.4608,-2.8043 -1.381,-3.3906l0.2508,-2.0095l27.6318,0l0,1.8841c-4.2699,0.8371 -7.4111,2.2393 -9.4206,4.2065c-2.0095,1.9687 -3.0143,5.045 -3.0143,9.2317l2.8269,45.7176c0,8.9597 0.7736,14.6543 2.3238,17.0824c1.5275,2.4281 5.672,4.2276 12.4334,5.4001l0,1.8841l-41.3222,0l0,-1.8841c5.61,-0.8371 9.336,-1.9264 11.1792,-3.2652c2.6789,-1.9263 4.0191,-5.4015 4.0191,-10.4253l-3.392,-54.8858l-32.2779,70.4604l-1.3824,0l-29.7667,-67.5716c-0.5863,5.107 -1.2345,10.9891 -1.9461,17.6462c-0.7117,6.6571 -1.2571,12.7688 -1.6333,18.338c-0.3763,5.5678 -0.5651,11.1144 -0.5651,16.6413c0,3.4329 0.5862,5.9032 1.7587,7.4096c2.0927,2.6804 6.5303,4.5645 13.3128,5.6524l0,1.8841l-35.0414,0l0,-1.8841c5.107,-0.8371 8.6244,-2.6789 10.5493,-5.5255c1.3402,-1.9264 2.5127,-5.9032 3.5174,-11.9332l4.6476,-35.2922l1.6319,-17.0824c0.3353,-3.8091 -0.9203,-6.7191 -3.7669,-8.7075c-2.3449,-1.653 -5.6946,-2.6381 -10.049,-2.9721l0,-2.0095l27.1301,0l0.1254,1.381c-0.6694,0.754 -1.0048,1.863 -1.0048,3.3497c0,1.4233 0.3354,3.1609 1.0048,5.2324c0.3354,1.0682 0.837,2.3238 1.5064,3.726l23.8438,53.3385zm78.896,-10.5085c0,6.0286 1.9898,11.0313 5.9665,15.0081c3.9768,3.9782 8.9809,5.9666 15.0095,5.9666c4.0191,0 7.6196,-0.8582 10.8016,-2.5746c3.1806,-1.7165 6.3217,-4.2502 9.4192,-7.5985c-7.5365,-8.8766 -13.3551,-15.4069 -17.4587,-19.5936c-3.6837,-3.7682 -7.6196,-7.3265 -11.8064,-10.6762c-3.5159,1.9264 -6.3837,4.6476 -8.6032,8.1636c-2.2181,3.5173 -3.3285,7.2856 -3.3285,11.3046zm21.1014,-26.1253c2.679,-2.1758 4.835,-4.4996 6.4683,-6.9699c1.6319,-2.4704 2.4492,-5.255 2.4492,-8.3524c0,-3.4328 -1.047,-6.426 -3.1397,-8.9809c-2.0941,-2.5535 -4.8153,-3.8302 -8.165,-3.8302c-3.1819,0 -5.7143,1.0682 -7.5984,3.2031c-1.8841,2.135 -2.8255,4.7927 -2.8255,7.9747c0,2.3449 0.6694,4.4799 2.0096,6.4063c0.9202,1.3387 2.5112,3.0551 4.773,5.1492l6.0285,5.4001zm-12.0571,3.6428c-3.4343,-3.0974 -5.8201,-5.5269 -7.1602,-7.2842c-2.3435,-3.0988 -3.516,-6.2808 -3.516,-9.546c0,-5.6932 2.2181,-10.2364 6.6571,-13.627c4.4376,-3.392 9.5868,-5.0872 15.4477,-5.0872c5.1916,0 9.6714,1.2556 13.4397,3.7682c4.353,2.9311 6.5302,6.9079 6.5302,11.9317c0,4.2699 -1.7573,7.9127 -5.2746,10.927c-1.9264,1.6742 -5.6101,3.8105 -11.0525,6.4063l-1.3824,0.7525l24.8697,26.3762c3.1806,-4.8562 5.4001,-8.3313 6.6557,-10.4253c2.9312,-5.107 4.3967,-8.8752 4.3967,-11.3033c0,-1.591 -1.3401,-2.7635 -4.019,-3.5174c-3.2666,-0.5862 -5.317,-0.9625 -6.1554,-1.1302l0,-1.8841l37.0523,0l0,1.8841c-6.1132,0 -11.681,1.801 -16.7048,5.4015c-4.019,2.8466 -8.1635,7.2419 -12.4348,13.1874l-6.908,9.6714c5.2761,7.0333 9.3783,11.8683 12.3095,14.4852c5.1915,4.5842 10.717,6.8657 16.5793,6.8657c3.182,0 6.5303,-0.4185 10.0476,-1.2556l0.6271,1.8841c-4.2699,1.5079 -8.2044,2.6169 -11.8049,3.3286c-3.6005,0.7116 -7.411,1.0681 -11.4301,1.0681l-9.4205,-1.1316c-1.3388,0 -3.2652,-2.1758 -5.7764,-6.5302c-1.9264,-3.4329 -4.5644,-6.8657 -7.9127,-10.2999c-5.0238,5.9454 -9.1274,10.0899 -12.3094,12.4348c-5.107,3.6837 -10.5916,5.5269 -16.4525,5.5269c-5.6101,0 -10.8016,-1.8841 -15.5746,-5.6523c-5.8609,-4.6053 -8.7921,-10.7184 -8.7921,-18.338c0,-5.9441 2.0927,-11.4287 6.2795,-16.4525c3.182,-3.7683 7.9127,-7.5788 14.1935,-11.4301l-1.0047,-1.0048zm164.6589,-8.1635l-1.8841,0c-1.2556,-7.4519 -3.9359,-13.272 -8.0381,-17.4587c-4.5222,-4.6053 -10.4253,-6.9079 -17.7095,-6.9079c-11.137,0 -20.0122,4.019 -26.627,12.0571c-6.1963,7.5365 -9.2938,16.9979 -9.2938,28.3857c0,11.9741 3.8937,22.064 11.6796,30.2698c7.3687,7.7873 15.8676,11.6795 25.4968,11.6795c7.4519,0 13.565,-2.5535 18.338,-7.6604c3.3483,-3.6005 6.7825,-9.5883 10.2985,-17.9604l1.7587,0.7525c-1.4233,7.3688 -3.726,14.863 -6.908,22.4825c-3.8513,1.8419 -7.9338,3.2032 -12.246,4.0825c-4.3122,0.8794 -8.7709,1.319 -13.3762,1.319c-13.899,0 -25.4545,-3.685 -34.6651,-11.0538c-9.9645,-7.9536 -14.9461,-18.7551 -14.9461,-32.4033c0,-12.1418 4.2699,-22.4403 12.8111,-30.8983c9.4615,-9.3769 22.0626,-14.0667 37.8049,-14.0667c5.1084,0 9.9433,0.5228 14.5064,1.5698c4.563,1.0471 8.8963,2.7846 12.9999,5.2127l0,20.5984z"/>
   <path fill="#1b1918" fill-rule="evenodd" id="path48" d="m121.9456,180.24135c-1.1437,0 -2.068,-0.9281 -2.068,-2.0689l-0.0719,-77.5682c0,-1.1437 0.9962,-3.0039 2.1399,-3.0039c1.1447,0 5.9671,-0.5748 -0.068,1.233c-2.4796,0.7437 2.1408,79.3391 2.1408,79.3391c0,1.1408 -0.9281,2.0689 -2.0728,2.0689z"/>
   <path fill="#1b1918" fill-rule="evenodd" id="path50" d="m63.1981,180.24135c-1.1437,0 -2.069,-0.9281 -2.069,-2.0689c0,0 2.069,-46.2425 -0.3456,-55.6746c-2.4146,-9.44 0.6611,-1.2059 1.2709,-0.2369c3.4456,5.5253 3.2155,55.9115 3.2155,55.9115c0,1.1408 -0.9281,2.0689 -2.0718,2.0689z"/>
   <path fill="#1b1918" fill-rule="evenodd" id="path52" d="m76.6177,167.82175c-1.1437,0 -2.069,-0.9281 -2.069,-2.0689c0,0 2.569,-52.9144 0,-66.0797c-1.0476,-5.3777 1.3049,-2.9252 2.069,-2.0728c2.569,2.8738 2.069,68.1525 2.069,68.1525c0,1.1408 -0.9253,2.0689 -2.069,2.0689z"/>
   <path fill="#1b1918" fill-rule="evenodd" id="path54" d="m92.5791,218.08085c-0.6301,0 -1.2233,-0.2884 -1.6136,-0.7816l-29.415,-36.5559c-0.4583,-0.5748 -0.5816,-1.3592 -0.3117,-2.0476c0.268,-0.6922 0.8806,-1.1816 1.6175,-1.2952c6.1341,-0.9243 10.9526,-5.7709 11.707,-11.7681c0.0272,-0.2359 0.1019,-0.4622 0.2087,-0.6748c0.4,-0.8116 1.3049,-1.267 2.1913,-1.1165c0.3563,0.0612 0.6787,0.2087 0.9457,0.4214c0.4417,0.298 0.7505,0.767 0.8223,1.3495c0.8495,6.8088 6.8021,11.9565 13.8478,11.9672c7.0312,-0.0107 12.9837,-5.1584 13.84,-11.9672c0.1272,-1.035 1.0107,-1.8156 2.0554,-1.8156l0.0175,0c0.3835,0 0.7359,0.1127 1.0447,0.2942c0.3563,0.1884 0.6572,0.4796 0.8417,0.8563c0.1097,0.2127 0.1816,0.4496 0.2097,0.6855c0.7602,5.9972 5.572,10.8438 11.707,11.7681c0.7359,0.1136 1.3495,0.603 1.6165,1.2952c0.2699,0.6884 0.1534,1.4728 -0.3116,2.0476l-29.4082,36.5559c-0.3971,0.4932 -0.9826,0.7816 -1.6127,0.7816z"/>
   <path fill="#1b1918" fill-rule="evenodd" id="path56" d="m66.8039,180.66565l25.7733,32.0384l25.7703,-32.0384c-4.2302,-1.4932 -7.7341,-4.4835 -9.84,-8.3127c-3.0796,5.6039 -9.1108,9.3545 -15.9303,9.3681c-6.8225,-0.0136 -12.8575,-3.7642 -15.9333,-9.3613c-2.1068,3.8224 -5.6137,6.8127 -9.84,8.3059z"/>
   <path fill="#1b1918" fill-rule="evenodd" id="path58" d="m92.5791,218.08085c-0.6301,0 -1.2233,-0.2884 -1.6136,-0.7816l-14.4439,-17.9372c-0.4447,-0.5544 -0.5719,-1.301 -0.3389,-1.9689c0.2263,-0.6709 0.7884,-1.1787 1.4797,-1.3428c9.8506,-2.3253 19.9411,-2.3253 29.8296,-0.003c0.6883,0.167 1.2495,0.6748 1.4757,1.3418c0.2359,0.6718 0.1058,1.4184 -0.3388,1.9728l-14.4371,17.9372c-0.3971,0.4932 -0.9826,0.7816 -1.6127,0.7816l0,0.0001z"/>
   <path fill="url(#grad8)" id="path76" d="m81.8692,199.39995l10.7099,13.306l10.7031,-13.306c-7.1312,-1.2845 -14.2964,-1.2845 -21.413,0z"/>
   <path fill="#d90000" id="path90" d="m132.4487,86.40605c0,0 -14.276,6.8874 -12.4944,15.2992c4.4078,-2.4486 17.2585,3.2641 24.9955,-3.9389c16.9207,-15.775 7.4739,-35.1821 7.4739,-35.1821c-1.6573,13.6973 -15.8614,6.1623 -26.0169,15.1634c-9.2584,8.1923 -9.9603,15.8196 -10.5933,20.31c0.5271,-1.4894 6.3253,-10.0526 16.6352,-11.6516z"/>
   <path fill="#1b1918" fill-rule="evenodd" id="path92" d="m41.5705,68.76495c20.6499,4.4875 34.8812,21.9178 33.9909,39.8171c0.8767,-0.8835 1.2019,-2.5214 2.0408,-3.4796c-0.0408,-17.2421 -13.4944,-33.0083 -33.4908,-37.354c-10.5012,-2.2884 -20.9984,-1.0039 -29.8801,2.9146c8.3127,-3.0962 17.8139,-3.9632 27.3392,-1.8981z"/>
   <path fill="#d90000" id="path106" d="m66.4088,75.48835c0,0 -1.4243,-17.2352 -17.909,-25.0916l1.0165,2.8767c0,0 -15.4129,-11.6691 -34.4559,4.5486c-13.5254,11.5216 -15.0604,20.8897 -15.0604,20.8897c0,0 4.4156,-4.6205 12.2177,4.8738c4.2602,5.1923 16.9575,9.7749 27.3043,4.9904c10.3438,-4.7642 12.9128,-5.7991 12.9128,-5.7991l-3.4865,4.6962c0,0 15.0527,-11.0905 20.0295,-5.2341c0,0 -22.1091,-26.9994 -46.2318,-17.4129c0,0 20.5576,-11.738 43.6628,10.6623z"/>
   <path fill="#1b1918" fill-rule="evenodd" id="path108" d="m106.7473,47.27825c0.7942,0.0786 1.5787,0.1747 2.3224,0.2738c-0.0272,-7.4662 0.007,-12.5216 0.1262,-13.7206c0.6951,-6.672 0.4563,-8.9672 -0.6884,-8.9672c-1.1437,0 -4.5107,0.6894 -2.5311,7.9332c0.3631,1.332 0.6097,6.6719 0.7709,14.4808z"/>
   <path fill="#1b1918" fill-rule="evenodd" id="path110" d="m107.0017,85.03125c-0.0204,37.2821 -0.534,80.7187 -0.534,80.7187c0,1.1437 0.9281,2.0718 2.0651,2.0718c1.1437,0 2.0757,-0.9281 2.0757,-2.0718c0,0 -0.7437,-44.5298 -1.2058,-81.8974c-0.767,0.4418 -1.5719,0.8292 -2.401,1.1787z"/>
   <path fill="#d90000" id="path124" d="m77.842,88.63715c0,0 -8.0429,-12.4371 -0.9563,-26.3936l0.8155,2.4864c0,0 4.3603,-15.9711 25.7596,-14.9303c15.2148,0.7505 21.147,6.3166 21.147,6.3166c0,0 -5.4118,-0.8263 -5.737,9.6894c-0.1816,5.7467 -6.4186,15.4983 -15.9236,17.6663c-9.5176,2.168 -11.8128,2.8088 -11.8128,2.8088l4.8224,1.3699c0,0 -16.009,0.336 -16.3303,6.9079c0,0 0.8971,-29.8801 22.2761,-35.9802c0,0 -20.0809,2.7748 -24.0606,30.0588z"/>
   <path fill="url(#grad16)" id="path142" d="m147.3605,59.36965c0,0 6.5895,-5.4971 1.4797,-15.3682c-3.6341,-7.0078 -7.5361,-8.6147 -7.5361,-8.6147c0,0 1.5593,2.3739 -3.3359,4.7953c-2.668,1.333 -5.9215,6.3748 -4.8904,11.3234c1.0243,4.9525 1.2194,6.1758 1.2194,6.1758l-1.6893,-1.9767c0,0 2.8573,6.5972 0.7981,8.7749c1.1029,-0.7563 2.1786,-1.6058 3.2233,-2.5651c5.7613,-5.3117 8.638,-12.2477 8.1205,-17.9915c1.5933,5.5243 1.0447,13.1652 -6.8768,20.6013c2.5651,-0.0787 7.3118,-0.8797 10.8332,-5.305l-1.3457,0.1505z"/>
   <path fill="url(#grad18)" id="path160" d="m62.1544,114.39865c0,0 -1.0175,-8.5215 -12.0798,-9.6137c-7.8613,-0.768 -11.3274,1.6301 -11.3274,1.6301c0,0 2.836,-0.0107 2.2097,5.4078c-0.3427,2.97 2.1127,8.4361 6.8293,10.2682c4.7098,1.8359 5.8399,2.3398 5.8399,2.3398l-2.5758,0.3388c0,0 7.0904,1.202 7.7924,4.1176c-0.035,-1.3399 -0.1612,-2.7098 -0.401,-4.1001c-1.3117,-7.7205 -5.5661,-13.9128 -10.6555,-16.6119c5.4904,1.668 11.5972,6.2991 13.5254,16.9915c1.3331,-2.1951 3.2438,-6.6166 1.4525,-11.9807l-0.6097,1.2126z"/>
   <path fill="#d90000" id="path174" d="m77.7546,46.32485c0,0 1.3185,-8.4798 -9.039,-12.5187c-7.3496,-2.866 -11.3438,-1.4932 -11.3438,-1.4932c0,0 2.7437,0.7573 0.6679,5.802c-1.1301,2.7574 -0.2466,8.6963 3.802,11.7352c4.038,3.0408 4.9904,3.8321 4.9904,3.8321l-2.569,-0.3767c0,0 6.4943,3.0796 6.3875,6.0729c0.333,-1.2952 0.5825,-2.6545 0.7301,-4.0554c0.8146,-7.7885 -1.6068,-14.9022 -5.7816,-18.8761c4.8428,3.0962 9.4739,9.2002 8.436,20.013c1.8738,-1.7535 4.9118,-5.4972 4.637,-11.1381l-0.9175,1.003z"/>
   <path fill="url(#grad22)" id="path192" d="m119.632,24.42645c0,0 4.1068,-10.9876 -8.6312,-19.2625c-9.0565,-5.8738 -14.7828,-5.134 -14.7828,-5.134c0,0 3.4661,1.767 -0.7087,7.9496c-2.2816,3.3807 -2.737,11.573 1.832,16.7624c4.5758,5.1884 5.6273,6.5079 5.6273,6.5079l-3.3467,-1.2097c0,0 7.8545,5.9117 6.8846,9.8885c0.802,-1.6409 1.5039,-3.3836 2.0932,-5.2263c3.2535,-10.2002 1.9797,-20.3897 -2.5078,-26.8636c5.6244,5.4836 10.1284,14.9333 5.7545,29.1267c2.9903,-1.8282 8.0933,-5.9933 9.2856,-13.6284l-1.5,1.0894z"/>
  </g>
 </g>
 <g>
  <title>Layer 2</title>
 </g>
</svg>